<?xml version="1.0" standalone="no"?><!DOCTYPE svg PUBLIC "-//W3C//DTD SVG 1.1//EN" "http://www.w3.org/Graphics/SVG/1.1/DTD/svg11.dtd"><svg t="1651662996661" class="icon" viewBox="0 0 1024 1024" version="1.1" xmlns="http://www.w3.org/2000/svg" p-id="4145" xmlns:xlink="http://www.w3.org/1999/xlink" width="200" height="200"><defs><style type="text/css"></style></defs><path d="M663.68 758.56a132.8 132.8 0 1 0 0-265.6 132.8 132.8 0 0 0 0 265.6z" fill="#28D900" opacity=".15" p-id="4146"></path><path d="M492.96 777.44a19.04 19.04 0 1 1 0 37.92H265.44a18.88 18.88 0 0 1-18.88-18.88V567.2a280 280 0 0 1 488.16-190.08 18.88 18.88 0 0 1-28.16 25.28 242.24 242.24 0 0 0-422.08 164.8v210.24zM170.72 929.12a19.04 19.04 0 1 1 0-37.92h682.56a19.04 19.04 0 1 1 0 37.92z m322.24-701.6V114.24a19.04 19.04 0 0 1 38.08 0v113.28a19.04 19.04 0 0 1-38.08 0zM656 261.6l56.96-98.4a18.88 18.88 0 1 1 32 18.88l-56.8 98.56A19.04 19.04 0 0 1 656 261.6z m-345.44-98.4L368 262.08a18.88 18.88 0 1 1-32.8 18.88l-57.12-98.88a18.88 18.88 0 1 1 32.48-18.88zM144 315.68l98.08 56.64a18.88 18.88 0 1 1-18.08 32.8l-98.72-56.64a18.88 18.88 0 1 1 18.72-32.8z m519.68 480.8a170.72 170.72 0 1 1 0-341.44 170.72 170.72 0 1 1 0 341.44z m0-37.92a132.8 132.8 0 1 0 0-265.6 132.8 132.8 0 0 0 0 265.6z m51.52-201.6a19.04 19.04 0 0 1 30.24 22.88v0.96l-76.64 94.72a19.04 19.04 0 0 1-25.6 3.84l-48-32a19.04 19.04 0 0 1 21.6-32l32 22.56z" fill="#28D900" p-id="4147"></path></svg>