<?xml version="1.0" standalone="no"?><!DOCTYPE svg PUBLIC "-//W3C//DTD SVG 1.1//EN" "http://www.w3.org/Graphics/SVG/1.1/DTD/svg11.dtd"><svg t="1651663024053" class="icon" viewBox="0 0 1024 1024" version="1.1" xmlns="http://www.w3.org/2000/svg" p-id="4627" xmlns:xlink="http://www.w3.org/1999/xlink" width="200" height="200"><defs><style type="text/css"></style></defs><path d="M633.9 255.2H392.1c-9.8 0-17.7 7.9-17.7 17.7 0 9.8 7.9 17.7 17.7 17.7h241.8c9.8 0 17.7-7.9 17.7-17.7s-7.9-17.7-17.7-17.7zM633.9 353.8H392.1c-9.8 0-17.7 7.9-17.7 17.7 0 9.8 7.9 17.7 17.7 17.7h241.8c9.8 0 17.7-7.9 17.7-17.7 0-9.8-7.9-17.7-17.7-17.7zM923.9 931.6c-37.8-196.4-210.6-339-410.9-339-200.2 0-373.1 142.6-410.9 339L98 952.7h830l-4.1-21.1z m-782.4-14.3C184 748.5 336.9 628.1 513 628.1s329 120.4 371.5 289.2h-743z" fill="#4E65A8" p-id="4628"></path><path d="M297.4 610.3c9.8 0 17.7-7.9 17.7-17.7V297.3c0-107.4 87.4-194.9 194.9-194.9h5.9c107.5 0 194.9 87.4 194.9 194.9v295.3c0 9.8 7.9 17.7 17.7 17.7s17.7-7.9 17.7-17.7V297.3c0-127-103.3-230.3-230.3-230.3H510c-127 0-230.3 103.3-230.3 230.3v295.3c0 9.8 7.9 17.7 17.7 17.7z" fill="#4E65A8" p-id="4629"></path></svg>